<svg width="16" height="17" viewBox="0 0 16 17" fill="none" xmlns="http://www.w3.org/2000/svg">
<path d="M12.6666 5.83333C13.7733 5.83333 14.6666 6.72667 14.6666 7.83333V11.8333H12V14.5H3.99998V11.8333H1.33331V7.83333C1.33331 6.72667 2.22665 5.83333 3.33331 5.83333H3.99998V2.5H12V5.83333H12.6666ZM5.33331 3.83333V5.83333H10.6666V3.83333H5.33331ZM10.6666 13.1667V10.5H5.33331V13.1667H10.6666ZM12 10.5H13.3333V7.83333C13.3333 7.46667 13.0333 7.16667 12.6666 7.16667H3.33331C2.96665 7.16667 2.66665 7.46667 2.66665 7.83333V10.5H3.99998V9.16667H12V10.5ZM12.6666 8.16667C12.6666 8.53333 12.3666 8.83333 12 8.83333C11.6333 8.83333 11.3333 8.53333 11.3333 8.16667C11.3333 7.8 11.6333 7.5 12 7.5C12.3666 7.5 12.6666 7.8 12.6666 8.16667Z" fill="white"/>
</svg>
