<svg width="24" height="24" viewBox="0 0 24 24" fill="none" xmlns="http://www.w3.org/2000/svg">
<path fill-rule="evenodd" clip-rule="evenodd" d="M5.38499 8.63626L5.47838 8.40005C6.23888 6.4988 8.08164 5.25 10.1303 5.25H13.8697C15.9184 5.25 17.7611 6.4988 18.5216 8.40005L18.615 8.63626H18.6206C18.6634 8.62501 18.7072 8.625 18.75 8.625H21V8.63626C21 9.22126 20.7638 9.79491 20.343 10.2224C20.172 10.3912 19.9763 10.5263 19.7636 10.6388L19.7737 10.6501C19.9571 10.7851 20.1248 10.9425 20.2733 11.1225C20.5658 11.4712 20.7806 11.8875 20.8976 12.3263C20.9651 12.585 20.9989 12.855 21 13.125V16.5H19.875V18.75H16.5V16.5H7.5V18.75H4.125V16.5H3V13.125C3 12.1237 3.4725 11.2125 4.23637 10.6388C4.02375 10.5263 3.82798 10.3912 3.65698 10.2224C3.23623 9.79491 3 9.22126 3 8.63626V8.625H5.25C5.29613 8.625 5.34112 8.62501 5.38499 8.63626ZM19.875 12H18.3248C17.841 12 17.3763 12.1912 17.0343 12.5287C16.6923 12.8775 16.5 13.3389 16.5 13.8226V14.25H17.625C18.8625 14.25 19.8671 13.2488 19.875 12.0113V12ZM5.67524 12H4.125C4.125 13.2487 5.13186 14.25 6.37273 14.25C6.99373 14.25 7.5 14.25 7.5 14.25V13.8226C7.5 13.3389 7.30765 12.8775 6.96565 12.5287C6.62365 12.1912 6.15899 12 5.67524 12ZM10.1303 7.5C9.00189 7.5 7.98712 8.18629 7.5675 9.23254L7.36164 9.75H16.6384L16.4325 9.23254C16.3358 8.99629 16.2053 8.77118 16.0455 8.55743C15.8655 8.33243 15.6495 8.12991 15.4065 7.97241C15.1669 7.80366 14.9025 7.6801 14.6257 7.60135C14.3794 7.53385 14.1251 7.5 13.8697 7.5H10.1303Z" fill="#3EB6E4"/>
</svg>
