<svg width="15" height="14" viewBox="0 0 15 14" fill="none" xmlns="http://www.w3.org/2000/svg">
<path d="M1.55285 2.20778L0.942477 1.77195H0.942477L1.55285 2.20778ZM7.94737 2.91873L8.32726 2.27206L7.94737 2.91873ZM3.59216 1.00978L3.5124 0.264032L3.59216 1.00978ZM3.59215 12.9902L3.5124 13.736L3.59215 12.9902ZM1.55284 11.7922L2.16321 11.3564L1.55284 11.7922ZM11.7497 8.198L11.0626 7.89735L11.7497 8.198ZM11.7497 5.802L11.0626 6.10265L11.7497 5.802ZM14.75 1C14.75 0.585786 14.4142 0.25 14 0.25C13.5858 0.25 13.25 0.585786 13.25 1H14.75ZM13.25 13C13.25 13.4142 13.5858 13.75 14 13.75C14.4142 13.75 14.75 13.4142 14.75 13H13.25ZM1.75 7C1.75 5.64614 1.75073 4.68185 1.81608 3.95709C1.88183 3.22785 2.0056 2.86435 2.16322 2.64361L0.942477 1.77195C0.54725 2.32545 0.394597 3.01875 0.322137 3.82239C0.249272 4.63051 0.25 5.67521 0.25 7H1.75ZM8.32726 2.27206C7.20023 1.60998 6.31002 1.08613 5.58419 0.745532C4.86233 0.406795 4.18921 0.191651 3.5124 0.264032L3.67191 1.75553C3.93051 1.72787 4.29506 1.79754 4.94698 2.10346C5.59494 2.40751 6.41464 2.88816 7.56748 3.5654L8.32726 2.27206ZM2.16322 2.64361C2.52255 2.14038 3.07177 1.81971 3.67191 1.75553L3.5124 0.264032C2.48075 0.374361 1.54757 0.92453 0.942477 1.77195L2.16322 2.64361ZM7.56748 10.4346C6.41464 11.1118 5.59494 11.5925 4.94698 11.8965C4.29506 12.2025 3.9305 12.2721 3.67191 12.2445L3.5124 13.736C4.18921 13.8083 4.86233 13.5932 5.58419 13.2545C6.31002 12.9139 7.20022 12.39 8.32726 11.7279L7.56748 10.4346ZM0.25 7C0.25 8.32479 0.249271 9.36949 0.322135 10.1776C0.394595 10.9813 0.547248 11.6745 0.942475 12.228L2.16321 11.3564C2.0056 11.1356 1.88183 10.7722 1.81607 10.0429C1.75073 9.31815 1.75 8.35386 1.75 7H0.25ZM3.67191 12.2445C3.07177 12.1803 2.52255 11.8596 2.16321 11.3564L0.942475 12.228C1.54757 13.0755 2.48074 13.6256 3.5124 13.736L3.67191 12.2445ZM8.32726 11.7279C9.45438 11.0658 10.3452 10.5434 10.9978 10.0742C11.6481 9.60675 12.1633 9.1237 12.4368 8.49866L11.0626 7.89735C10.9536 8.14659 10.7076 8.43551 10.1223 8.85627C9.53929 9.27536 8.72023 9.75741 7.56748 10.4346L8.32726 11.7279ZM7.56748 3.5654C8.72023 4.24259 9.53929 4.72464 10.1223 5.14373C10.7076 5.56449 10.9536 5.85341 11.0626 6.10265L12.4368 5.50135C12.1633 4.8763 11.6481 4.39325 10.9978 3.92578C10.3452 3.45664 9.45439 2.9342 8.32726 2.27206L7.56748 3.5654ZM12.4368 8.49866C12.8544 7.54441 12.8544 6.45559 12.4368 5.50135L11.0626 6.10265C11.3125 6.67357 11.3125 7.32643 11.0626 7.89735L12.4368 8.49866ZM13.25 1V13H14.75V1H13.25Z" fill="white"/>
</svg>
