<svg width="17" height="16" viewBox="0 0 17 16" fill="none" xmlns="http://www.w3.org/2000/svg">
<path fill-rule="evenodd" clip-rule="evenodd" d="M2.92859 3.5C2.92859 2.67157 3.60016 2 4.42859 2H6.57145C6.92648 2 7.2143 2.28782 7.2143 2.64286C7.2143 2.99789 6.92648 3.28571 6.57145 3.28571H4.42859C4.31024 3.28571 4.2143 3.38165 4.2143 3.5V12.5C4.2143 12.6184 4.31024 12.7143 4.42859 12.7143H6.57145C6.92648 12.7143 7.2143 13.0021 7.2143 13.3571C7.2143 13.7122 6.92648 14 6.57145 14H4.42859C3.60016 14 2.92859 13.3284 2.92859 12.5V3.5ZM11.8766 7.35714H7.00003C6.645 7.35714 6.35718 7.64496 6.35718 8C6.35718 8.35505 6.645 8.64286 7.00003 8.64286H11.8766L10.1883 10.3312C9.93727 10.5822 9.93727 10.9892 10.1883 11.2403C10.4394 11.4913 10.8464 11.4913 11.0974 11.2403L13.8831 8.45457C14.1342 8.20352 14.1342 7.79648 13.8831 7.54543L11.0974 4.75972C10.8464 4.50867 10.4394 4.50867 10.1883 4.75972C9.93727 5.01077 9.93727 5.41781 10.1883 5.66885L11.8766 7.35714Z" fill="#292929"/>
</svg>
