<svg width="16" height="16" viewBox="0 0 16 16" fill="none" xmlns="http://www.w3.org/2000/svg">
<path d="M12.8119 5.2923L12.7337 5.78614L12.8119 5.2923ZM10.041 2.52145L9.5472 2.59967L10.041 2.52145ZM3.37405 14.0301L3.66794 13.6256L3.37405 14.0301ZM2.63661 13.2926L3.04112 12.9987L2.63661 13.2926ZM13.3634 13.2926L12.9589 12.9987L13.3634 13.2926ZM12.626 14.0301L12.3321 13.6256L12.626 14.0301ZM12.626 1.96995L12.9198 1.56544L12.626 1.96995ZM13.3634 2.70739L13.7679 2.41349L13.3634 2.70739ZM3.37405 1.96995L3.66794 2.37445L3.37405 1.96995ZM2.63661 2.70739L3.04112 3.00128L2.63661 2.70739ZM10 1.35262L10.0171 0.852915L10 1.35262ZM13.9807 5.33334L14.4804 5.31622L13.9807 5.33334ZM8.5 6C8.5 5.72386 8.27614 5.5 8 5.5C7.72386 5.5 7.5 5.72386 7.5 6H8.5ZM11.0218 9.55198C11.2162 9.35584 11.2148 9.03926 11.0186 8.84488C10.8225 8.65049 10.5059 8.6519 10.3115 8.84803L11.0218 9.55198ZM9.73477 10.1403L10.0899 10.4922H10.0899L9.73477 10.1403ZM6.26523 10.1403L6.62036 9.78828L6.26523 10.1403ZM5.68846 8.84803C5.49407 8.6519 5.17749 8.65049 4.98136 8.84488C4.78523 9.03926 4.78382 9.35584 4.97821 9.55198L5.68846 8.84803ZM8.16711 11.3227L8.23033 11.8187H8.23033L8.16711 11.3227ZM7.83289 11.3227L7.76967 11.8187H7.76967L7.83289 11.3227ZM7.5 11.3227C7.5 11.5989 7.72386 11.8227 8 11.8227C8.27614 11.8227 8.5 11.5989 8.5 11.3227H7.5ZM12.8901 4.79845C11.6777 4.60643 10.7269 3.6556 10.5349 2.44323L9.5472 2.59967C9.80699 4.23992 11.0934 5.52635 12.7337 5.78614L12.8901 4.79845ZM13.5 7.33334V8.66667H14.5V7.33334H13.5ZM2.5 8.66667V7.33334H1.5V8.66667H2.5ZM8 14.1667C6.73895 14.1667 5.83333 14.166 5.13203 14.09C4.44009 14.015 4.00661 13.8716 3.66794 13.6256L3.08016 14.4346C3.61771 14.8251 4.24729 15 5.02432 15.0842C5.79198 15.1674 6.76123 15.1667 8 15.1667V14.1667ZM1.5 8.66667C1.5 9.90544 1.49931 10.8747 1.58249 11.6424C1.66667 12.4194 1.84155 13.049 2.2321 13.5865L3.04112 12.9987C2.79506 12.6601 2.65163 12.2266 2.57667 11.5346C2.50069 10.8333 2.5 9.92772 2.5 8.66667H1.5ZM3.66794 13.6256C3.42741 13.4508 3.21588 13.2393 3.04112 12.9987L2.2321 13.5865C2.46854 13.9119 2.75473 14.1981 3.08016 14.4346L3.66794 13.6256ZM13.5 8.66667C13.5 9.92772 13.4993 10.8333 13.4233 11.5346C13.3484 12.2266 13.2049 12.6601 12.9589 12.9987L13.7679 13.5865C14.1585 13.049 14.3333 12.4194 14.4175 11.6424C14.5007 10.8747 14.5 9.90544 14.5 8.66667H13.5ZM8 15.1667C9.23877 15.1667 10.208 15.1674 10.9757 15.0842C11.7527 15 12.3823 14.8251 12.9198 14.4346L12.3321 13.6256C11.9934 13.8716 11.5599 14.015 10.868 14.09C10.1667 14.166 9.26105 14.1667 8 14.1667V15.1667ZM12.9589 12.9987C12.7841 13.2393 12.5726 13.4508 12.3321 13.6256L12.9198 14.4346C13.2453 14.1981 13.5315 13.9119 13.7679 13.5865L12.9589 12.9987ZM12.3321 2.37445C12.5726 2.54921 12.7841 2.76074 12.9589 3.00128L13.7679 2.41349C13.5315 2.08806 13.2453 1.80188 12.9198 1.56544L12.3321 2.37445ZM8 0.833336C6.76123 0.833336 5.79198 0.83265 5.02432 0.915821C4.24729 1.00001 3.61771 1.17489 3.08016 1.56544L3.66794 2.37445C4.00661 2.1284 4.44009 1.98497 5.13203 1.91C5.83333 1.83402 6.73895 1.83334 8 1.83334V0.833336ZM2.5 7.33334C2.5 6.07229 2.50069 5.16666 2.57667 4.46537C2.65163 3.77343 2.79506 3.33995 3.04112 3.00128L2.2321 2.41349C1.84155 2.95104 1.66667 3.58063 1.58249 4.35765C1.49931 5.12532 1.5 6.09456 1.5 7.33334H2.5ZM3.08016 1.56544C2.75473 1.80188 2.46854 2.08806 2.2321 2.41349L3.04112 3.00128C3.21588 2.76074 3.42741 2.54921 3.66794 2.37445L3.08016 1.56544ZM8 1.83334C8.78205 1.83334 9.43037 1.8334 9.98288 1.85233L10.0171 0.852915C9.44384 0.833273 8.77652 0.833336 8 0.833336V1.83334ZM9.98288 1.85233C11.2195 1.8947 11.8617 2.03271 12.3321 2.37445L12.9198 1.56544C12.1841 1.03087 11.2661 0.895706 10.0171 0.852915L9.98288 1.85233ZM9.5 1.35263C9.5 1.94081 9.4989 2.29477 9.5472 2.59967L10.5349 2.44323C10.502 2.23532 10.5 1.97745 10.5 1.35262L9.5 1.35263ZM14.5 7.33334C14.5 6.55682 14.5001 5.8895 14.4804 5.31622L13.481 5.35046C13.4999 5.90297 13.5 6.55129 13.5 7.33334H14.5ZM14.4804 5.31622C14.4376 4.06725 14.3025 3.14927 13.7679 2.41349L12.9589 3.00128C13.3006 3.47164 13.4386 4.11384 13.481 5.35046L14.4804 5.31622ZM13.9807 4.83334C13.3559 4.83333 13.098 4.83138 12.8901 4.79845L12.7337 5.78614C13.0386 5.83443 13.3925 5.83333 13.9807 5.83334L13.9807 4.83334ZM7.5 6V10.8H8.5V6H7.5ZM10.3115 8.84803L9.37964 9.78828L10.0899 10.4922L11.0218 9.55198L10.3115 8.84803ZM6.62036 9.78828L5.68846 8.84803L4.97821 9.55198L5.9101 10.4922L6.62036 9.78828ZM9.37964 9.78828C8.99978 10.1715 8.74409 10.4285 8.52901 10.6012C8.32181 10.7676 8.20133 10.8143 8.10389 10.8267L8.23033 11.8187C8.58579 11.7734 8.87756 11.6038 9.15517 11.3809C9.4249 11.1643 9.72659 10.8588 10.0899 10.4922L9.37964 9.78828ZM5.9101 10.4922C6.27341 10.8588 6.5751 11.1643 6.84483 11.3809C7.12244 11.6038 7.41421 11.7734 7.76967 11.8187L7.89611 10.8267C7.79867 10.8143 7.67819 10.7676 7.47099 10.6012C7.25591 10.4285 7.00022 10.1715 6.62036 9.78828L5.9101 10.4922ZM8.10389 10.8267C8.0349 10.8355 7.9651 10.8355 7.89611 10.8267L7.76967 11.8187C7.92261 11.8382 8.07739 11.8382 8.23033 11.8187L8.10389 10.8267ZM7.5 10.8V11.3227H8.5V10.8H7.5Z" fill="white"/>
</svg>
