<svg width="17" height="17" viewBox="0 0 17 17" fill="none" xmlns="http://www.w3.org/2000/svg">
<path d="M9.64758 2.18572C9.47402 2.01215 9.19261 2.01215 9.01905 2.18572C8.84548 2.35928 8.84548 2.64069 9.01905 2.81426L9.59367 3.38888L8.40145 3.38887C7.25479 3.38872 6.56905 3.38863 5.99925 3.57377C4.84915 3.94746 3.94746 4.84916 3.57377 5.99926C3.38863 6.56905 3.38872 7.25479 3.38886 8.40145V8.59852C3.38872 9.74518 3.38863 10.4309 3.57377 11.0007C3.64962 11.2342 3.90036 11.3619 4.1338 11.2861C4.36725 11.2102 4.495 10.9595 4.41915 10.726C4.28324 10.3078 4.27776 9.77543 4.27776 8.49999C4.27776 7.22454 4.28324 6.69222 4.41915 6.27394C4.70492 5.39445 5.39445 4.70492 6.27393 4.41916C6.69222 4.28325 7.22454 4.27776 8.49998 4.27776H9.43907L8.88212 4.74189C8.69355 4.89903 8.66808 5.17928 8.82522 5.36785C8.98236 5.55641 9.26261 5.58189 9.45117 5.42475L10.3904 4.6421C10.6343 4.43878 10.7681 4.15366 10.7876 3.86311C10.8082 3.55664 10.7019 3.24004 10.4647 3.00285L9.64758 2.18572Z" fill="#292929"/>
<path d="M14.0945 5.70115C14.0215 5.46679 13.7724 5.33599 13.538 5.40898C13.3036 5.48198 13.1728 5.73114 13.2458 5.96549C13.3838 6.4084 13.3889 6.97095 13.3889 8.29867C13.3889 9.62638 13.3838 10.1889 13.2458 10.6318C12.9567 11.5602 12.2621 12.2791 11.3874 12.5755C10.9721 12.7163 10.4434 12.7222 9.16665 12.7222H8.23963L8.81425 12.1476C8.98782 11.974 8.98782 11.6926 8.81425 11.519C8.64069 11.3455 8.35928 11.3455 8.18571 11.519L7.36858 12.3362C7.13139 12.5734 7.02506 12.89 7.04565 13.1964C7.06517 13.487 7.19895 13.7721 7.44294 13.9754L8.38212 14.7581C8.57069 14.9152 8.85094 14.8897 9.00808 14.7012C9.16522 14.5126 9.13974 14.2324 8.95118 14.0752L8.39423 13.6111L9.2678 13.6111C10.4118 13.6113 11.1004 13.6114 11.6727 13.4174C12.8276 13.026 13.7242 12.085 14.0945 10.8962C14.278 10.3072 14.2779 9.59748 14.2778 8.39544V8.20189C14.2779 6.99985 14.278 6.29014 14.0945 5.70115Z" fill="#292929"/>
</svg>
